<svg width="80" height="80" viewBox="0 0 80 80" fill="none" xmlns="http://www.w3.org/2000/svg">
<rect x="0.5" y="0.5" width="79" height="79" rx="39.5" stroke="#FE8E38" stroke-dasharray="5 5"/>
<path d="M55 50.5499C54.6883 48.5066 53.8238 46.5873 52.5 44.9999C51.171 46.5841 50.3058 48.5048 50 50.5499C49.9592 50.9025 49.9935 51.2596 50.1005 51.598C50.2075 51.9364 50.3849 52.2483 50.621 52.5133C50.8571 52.7782 51.1465 52.9903 51.4704 53.1355C51.7942 53.2807 52.1451 53.3557 52.5 53.3557C52.8549 53.3557 53.2058 53.2807 53.5296 53.1355C53.8534 52.9903 54.1429 52.7782 54.379 52.5133C54.6151 52.2483 54.7925 51.9364 54.8995 51.598C55.0065 51.2596 55.0408 50.9025 55 50.5499ZM38.3333 53.8833C38.0217 51.8399 37.1572 49.9207 35.8333 48.3333C34.5043 49.9174 33.6391 51.8382 33.3333 53.8833C33.297 54.5836 33.5397 55.2697 34.0083 55.7914C34.4769 56.3131 35.1331 56.6278 35.8333 56.6666C36.5335 56.6278 37.1898 56.3131 37.6584 55.7914C38.127 55.2697 38.3697 54.5836 38.3333 53.8833ZM44.1666 56.6666C44.8668 56.6278 45.5231 56.3131 45.9917 55.7914C46.4603 55.2697 46.703 54.5836 46.6666 53.8833C46.355 51.8399 45.4905 49.9207 44.1666 48.3333C42.8377 49.9174 41.9725 51.8382 41.6666 53.8833C41.6303 54.5836 41.873 55.2697 42.3416 55.7914C42.8102 56.3131 43.4665 56.6278 44.1666 56.6666ZM25 50.5499C24.9636 51.2502 25.2063 51.9364 25.6749 52.4581C26.1435 52.9798 26.7998 53.2945 27.5 53.3333C28.2002 53.2945 28.8564 52.9798 29.325 52.4581C29.7936 51.9364 30.0363 51.2502 30 50.5499C29.6883 48.5066 28.8238 46.5873 27.5 44.9999C26.171 46.5841 25.3058 48.5048 25 50.5499ZM41.6666 26.7833V23.3333H38.3333V26.7833C35.1133 27.1889 32.1518 28.7552 30.004 31.1883C27.8562 33.6214 26.6696 36.7544 26.6666 39.9999H23.3333V43.3333H56.6666V39.9999H53.3333C53.3304 36.7544 52.1438 33.6214 49.996 31.1883C47.8482 28.7552 44.8867 27.1889 41.6666 26.7833ZM30 39.9999C30 37.3478 31.0535 34.8042 32.9289 32.9289C34.8043 31.0535 37.3478 29.9999 40 29.9999C42.6521 29.9999 45.1957 31.0535 47.071 32.9289C48.9464 34.8042 50 37.3478 50 39.9999H30Z" fill="#FE8E38"/>
</svg>
