<svg width="50" height="50" viewBox="0 0 50 50" fill="none" xmlns="http://www.w3.org/2000/svg">
<rect width="50" height="50" rx="25" fill="white"/>
<path d="M29 22C29 27.33 21 27.33 21 22H23C23 24.67 27 24.67 27 22M33 31V34H17V31C17 28.33 22.33 27 25 27C27.67 27 33 28.33 33 31ZM31.1 31C31.1 30.36 27.97 28.9 25 28.9C22.03 28.9 18.9 30.36 18.9 31V32.1H31.1M25.5 15C25.78 15 26 15.22 26 15.5V18.5H27V16C27.7077 16.3275 28.3006 16.8602 28.7019 17.5289C29.1031 18.1976 29.294 18.9714 29.25 19.75C29.25 19.75 29.95 19.89 30 21H20C20 19.89 20.75 19.75 20.75 19.75C20.706 18.9714 20.8969 18.1976 21.2981 17.5289C21.6994 16.8602 22.2923 16.3275 23 16V18.5H24V15.5C24 15.22 24.22 15 24.5 15" fill="#FE8E38"/>
</svg>
